<svg width="180" height="180" viewBox="0 0 180 180" fill="none" xmlns="http://www.w3.org/2000/svg">
<circle cx="180" cy="180" r="180" fill="#FCF0A1"/>
<g clip-path="url(#clip0_92_296)">
<path d="M137.245 123.857C137.245 123.857 139.469 135.17 131.983 143.823C130.429 145.632 128.456 147.314 125.953 148.759C120.61 151.844 115.412 152.362 110.964 151.778C103.333 150.78 97.9531 146.542 97.9531 146.542L137.245 123.857Z" fill="black"/>
<path d="M131.983 143.823C130.429 145.632 128.456 147.314 125.953 148.759C120.61 151.844 115.412 152.362 110.964 151.778C113.402 147.76 120.119 139.414 131.983 143.823Z" fill="#FF89AF"/>
<path d="M155.385 77.8766C155.385 77.8766 146.362 74.0679 132.826 81.8829C119.29 89.6979 118.804 98.9966 118.804 98.9966M85.6353 118.147C85.6353 118.147 76.6035 114.343 63.0675 122.158C49.5315 129.973 49.0544 139.267 49.0544 139.267" stroke="#231F20" stroke-width="3" stroke-miterlimit="10" stroke-linecap="round"/>
<path d="M149.447 120.772C146.422 115.533 148.219 108.826 153.459 105.801M89.1718 155.572C86.1468 150.333 79.4396 148.536 74.2002 151.561" stroke="#F6CEB5" stroke-width="3" stroke-miterlimit="10" stroke-linecap="round"/>
</g>
<defs>
<clipPath id="clip0_92_296">
<rect width="126" height="56" fill="white" transform="translate(43 132) rotate(-30)"/>
</clipPath>
</defs>
</svg>
