<svg width="180" height="181" viewBox="0 0 180 181" fill="none" xmlns="http://www.w3.org/2000/svg">
<circle cy="180.5" r="180" fill="#FCF0A1"/>
<g clip-path="url(#clip0_92_510)">
<path d="M78.1744 147.046C78.1744 147.046 69.4891 154.63 58.2524 152.472C55.9088 152.031 53.4655 151.163 50.9626 149.718C45.6193 146.633 42.572 142.391 40.8539 138.247C37.9025 131.139 38.8828 124.361 38.8828 124.361L78.1744 147.046Z" fill="black"/>
<path d="M58.2525 152.472C55.9089 152.032 53.4656 151.164 50.9628 149.719C45.6194 146.634 42.5721 142.392 40.8541 138.247C45.5521 138.35 56.1387 139.994 58.2525 152.472Z" fill="#FF89AF"/>
<path d="M127.065 139.766C127.065 139.766 125.852 130.047 112.316 122.232C98.7801 114.417 90.4843 118.646 90.4843 118.646M57.3156 99.496C57.3156 99.496 56.0937 89.7723 42.5577 81.9573C29.0217 74.1423 20.7346 78.376 20.7346 78.376" stroke="#231F20" stroke-width="3" stroke-miterlimit="10" stroke-linecap="round"/>
<path d="M86.9472 156.072C89.9722 150.833 96.6793 149.036 101.919 152.061M26.6718 121.272C29.6968 116.033 27.8996 109.326 22.6602 106.301" stroke="#F6CEB5" stroke-width="3" stroke-miterlimit="10" stroke-linecap="round"/>
</g>
<defs>
<clipPath id="clip0_92_510">
<rect width="126" height="56" fill="white" transform="translate(24 69.5) rotate(30)"/>
</clipPath>
</defs>
</svg>
