<?xml version="1.0" encoding="UTF-8"?>
<svg id="Layer_1" data-name="Layer 1" xmlns="http://www.w3.org/2000/svg" viewBox="0 0 894.69 263.71">
  <defs>
    <style>
      .cls-1 {
        fill: #050709;
      }
    </style>
  </defs>
  <g>
    <path class="cls-1" d="m461.43,72.79h43.03l-57.58,154.62h-44.55l-57.58-154.62h43.03l36.73,108.21,36.91-108.21Z"/>
    <path class="cls-1" d="m637.8,208.09c-15.56,15.77-34.55,23.66-56.98,23.66s-41.37-7.89-56.82-23.66c-15.46-15.77-23.18-35.1-23.18-57.98s7.73-42.21,23.18-57.98c15.46-15.77,34.4-23.66,56.82-23.66s41.41,7.89,56.98,23.66c15.56,15.77,23.34,35.1,23.34,57.98s-7.78,42.21-23.34,57.98Zm-86.22-27.37c7.78,8.04,17.52,12.06,29.25,12.06s21.52-4.02,29.4-12.06c7.88-8.04,11.82-18.25,11.82-30.62s-3.94-22.57-11.82-30.61c-7.88-8.04-17.68-12.06-29.4-12.06s-21.47,4.02-29.25,12.06c-7.78,8.04-11.67,18.25-11.67,30.61s3.89,22.58,11.67,30.62Z"/>
    <path class="cls-1" d="m696.19,54.24c-6.47,0-12.08-2.42-16.82-7.27-4.75-4.84-7.12-10.56-7.12-17.16s2.37-12.37,7.12-17.32c4.74-4.95,10.35-7.42,16.82-7.42s12.37,2.47,17.12,7.42c4.74,4.95,7.12,10.72,7.12,17.32s-2.38,12.32-7.12,17.16c-4.75,4.85-10.46,7.27-17.12,7.27Zm-19.4,173.18V72.79h39.09v154.62h-39.09Z"/>
    <path class="cls-1" d="m855.6,10.94h39.09v216.47h-39.09v-18.25c-11.52,15.05-27.88,22.57-49.1,22.57s-37.84-7.89-52.28-23.66c-14.45-15.77-21.67-35.1-21.67-57.98s7.22-42.21,21.67-57.98c14.44-15.77,31.87-23.66,52.28-23.66s37.58,7.53,49.1,22.58V10.94Zm-71.98,170.55c7.98,8.15,18.03,12.21,30.15,12.21s22.12-4.07,30-12.21c7.88-8.14,11.82-18.6,11.82-31.39s-3.94-23.24-11.82-31.39c-7.88-8.14-17.88-12.22-30-12.22s-22.18,4.07-30.15,12.22c-7.98,8.15-11.97,18.61-11.97,31.39s3.99,23.25,11.97,31.39Z"/>
  </g>
  <path class="cls-1" d="m325.93,42.79c-.06-.15-.19-.26-.34-.31L229.61.28s-.05-.02-.08-.03c-.35-.15-.73-.23-1.09-.24-.27-.03-.57-.02-.85.02l-.12.02s-.08,0-.12.01l-67.33,15.84c-.15.03-.27.13-.35.26l-24.16,44.43-60.01-24.21c-.62-.25-1.36-.29-1.93-.14L.44,53.49c-.11.02-.22.08-.3.17-.16.18-.18.44-.06.64l102.73,164.55c.43.79,1.09,1.4,1.91,1.78.04.03.09.06.13.08l96.77,42.53c.6.31,1.24.46,1.91.46,1.59,0,2.99-.83,3.74-2.23l35.1-64.58c.09-.16.09-.35,0-.51l-27.63-50.84,39.97,27.43c.12.09.28.11.43.08s.27-.13.34-.26l70.38-129.49c.11-.15.13-.34.06-.52Zm-223.21,52.07L12.25,55.1l61.98-14.62,95.61,38.58-67.12,15.8Zm72.36-12.64l62.39,114.78-33.98,62.38s-.06-.12-.07-.13L103.43,99.08l71.66-16.86Zm-3.22-64.7l56.17-13.22,90.2,39.84-55.88,13.16-90.48-39.78Zm44.65,124.08l43.1-79.28,58.57-13.79-64.46,118.58-37.2-25.52Z"/>
</svg>